<svg width="19" height="21" viewBox="0 0 19 21" fill="none" xmlns="http://www.w3.org/2000/svg">
<path d="M2.16685 19.0174C2.23046 20.0289 3.10428 20.8499 4.11746 20.8499H14.1271C15.1402 20.8499 16.0137 20.0289 16.0777 19.0174L16.9406 5.21241H1.30312L2.16685 19.0174ZM17.5921 1.30304H13.0312L12.5597 0.359907C12.4493 0.13919 12.2237 -0.000244141 11.9769 -0.000244141H6.2672C6.02038 -0.000244141 5.79482 0.13919 5.68446 0.359907L5.21249 1.30304H0.651561C0.291736 1.30304 0 1.5947 0 1.9546V3.25773C0 3.61755 0.291736 3.90929 0.651561 3.90929H17.5921C17.9521 3.90929 18.2437 3.61755 18.2437 3.25773V1.9546C18.2437 1.59462 17.9505 1.30304 17.5921 1.30304Z" fill="black"/>
</svg>
